M48
;GenerationSoftware,Autodesk,EAGLE,9.7.0*%
;CreationDate,2026-04-10T15:35:56Z*%
FMAT,2
ICI,OFF
METRIC,TZ,000.000
T6C0.300
T5C0.559
T4C0.650
T3C0.700
T2C1.067
T1C2.451
%
G90
M71
T1
X-44355Y109784
X-44355Y114864
X-41180Y109784
X-41180Y114864
T2
X-44355Y112324
X-39275Y111308
X-39275Y113340
T3
X-21174Y111744
X-26954Y111744
T4
X-19744Y115394
X-28384Y115394
X-19744Y111244
X-28384Y111244
T5
X-13272Y86046
X-16967Y86046
X-24315Y86046
X-28010Y86046
X-35363Y86046
X-39059Y86046
T6
X-28067Y92075
X-33782Y97028
X-37211Y96647
X-34163Y98425
X-35687Y97536
X-28321Y102743
X-27178Y100457
X-19939Y102108
X-25527Y103251
X-33528Y107188
X-21463Y102743
X-28575Y101092
X-40767Y99568
X-28829Y102362
X-24039Y100558
X-25239Y100558
X-25239Y101758
X-24039Y101758
X-22839Y101758
X-21639Y101758
X-21639Y100558
X-22839Y100558
X-25239Y99358
X-24039Y99358
X-22839Y99358
X-21639Y99358
X-21639Y98158
X-22839Y98158
X-24039Y98158
X-25239Y98158
M30